{
  "asset": {
    "generator": "Khronos glTF Blender I/O v1.6.16",
    "version": "2.0"
  },
  "scene": 0,
  "scenes": [
    {
      "name": "Scene",
      "nodes": [0]
    }
  ],
  "nodes": [
    {
      "mesh": 0,
      "name": "Men Round Neck T-shirt",
      "rotation": [0.7071068286895752, 0, 0, 0.7071067094802856]
    }
  ],
  "materials": [
    {
      "alphaMode": "BLEND",
      "doubleSided": true,
      "name": "VRayMtl1SG",
      "pbrMetallicRoughness": {
        "baseColorFactor": [0, 0, 0, 1],
        "metallicFactor": 0
      }
    }
  ],
  "meshes": [
    {
      "name": "Men Round Neck T-shirt",
      "primitives": [
        {
          "attributes": {
            "POSITION": 0,
            "NORMAL": 1,
            "TEXCOORD_0": 2
          },
          "indices": 3,
          "material": 0
        }
      ]
    }
  ],
  "accessors": [
    {
      "bufferView": 0,
      "componentType": 5126,
      "count": 6292,
      "max": [28.260995864868164, 12.673051834106445, 0.006827431730926037],
      "min": [-28.25032615661621, -12.930747032165527, -61.83551788330078],
      "type": "VEC3"
    },
    {
      "bufferView": 1,
      "componentType": 5126,
      "count": 6292,
      "type": "VEC3"
    },
    {
      "bufferView": 2,
      "componentType": 5126,
      "count": 6292,
      "type": "VEC2"
    },
    {
      "bufferView": 3,
      "componentType": 5123,
      "count": 34101,
      "type": "SCALAR"
    }
  ],
  "bufferViews": [
    {
      "buffer": 0,
      "byteLength": 75504,
      "byteOffset": 0
    },
    {
      "buffer": 0,
      "byteLength": 75504,
      "byteOffset": 75504
    },
    {
      "buffer": 0,
      "byteLength": 50336,
      "byteOffset": 151008
    },
    {
      "buffer": 0,
      "byteLength": 68202,
      "byteOffset": 201344
    }
  ],
  "buffers": [
    {
      "byteLength": 269548,
      "uri": "data:application/octet-stream;base64,"
    }
  ]
}
