<svg width="100%" viewBox="100 0 800 861.5389673927"><defs/><svg id="INSERT_SVG_1" version="1.1" xmlns="http://www.w3.org/2000/svg" xmlns:xlink="http://www.w3.org/1999/xlink" x="425" y="117.60787417471175" viewBox="0 0 297 297" style="" xml:space="preserve" fill="#fd79a8" width="150" height="150">
<g>
	<path d="M148.5,124.18c-14.579,0-26.44,11.861-26.44,26.44c0,14.579,11.861,26.44,26.44,26.44s26.44-11.861,26.44-26.44
		C174.94,136.041,163.079,124.18,148.5,124.18z M148.5,157.105c-3.576,0-6.485-2.909-6.485-6.485c0-3.576,2.909-6.485,6.485-6.485
		s6.485,2.909,6.485,6.485C154.985,154.196,152.076,157.105,148.5,157.105z"></path>
	<path d="M294.078,81.365c-80.272-80.27-210.883-80.27-291.155,0c-3.692,3.692-3.913,9.605-0.508,13.563l122.559,142.426
		c-1.858,3.615-2.914,7.707-2.914,12.043c0,14.579,11.861,26.44,26.44,26.44s26.44-11.861,26.44-26.44
		c0-4.336-1.056-8.428-2.914-12.043L294.585,94.928C297.991,90.97,297.77,85.057,294.078,81.365z M148.5,222.957
		c-2.938,0-5.762,0.489-8.404,1.377l-70.873-82.361l79.41-48.471l79.702,47.821l-71.432,83.011
		C154.262,223.446,151.438,222.957,148.5,222.957z M148.5,255.882c-3.576,0-6.485-2.909-6.485-6.485s2.909-6.485,6.485-6.485
		s6.485,2.909,6.485,6.485S152.076,255.882,148.5,255.882z M241.542,125.976l-87.821-52.692c-3.183-1.91-7.164-1.895-10.331,0.04
		l-87.357,53.322L23.727,89.102c70.614-63.994,178.932-63.994,249.546,0L241.542,125.976z"></path>
</g>
<desc>Created with Snap</desc><defs></defs></svg><svg id="INSERT_SVG_2" version="1.1" xmlns="http://www.w3.org/2000/svg" xmlns:xlink="http://www.w3.org/1999/xlink" x="425" y="603.5733578710647" viewBox="0 0 297 297" style="" xml:space="preserve" fill="#fd79a8" width="150" height="150">
<g>
	<path d="M292.957,48.257l-9.327-9.327c-5.392-5.39-14.163-5.39-19.555,0L156.801,146.203c6.945,7.269,12.293,16.086,15.474,25.625
		c1.319,3.957,3.097,7.761,5.256,11.336c0.342-0.324,0.702-0.63,1.035-0.963L292.957,67.81
		C298.348,62.419,298.348,53.648,292.957,48.257z"></path>
	<path d="M237.866,246.677c-1.931,0-3.747,0.753-5.113,2.118l-0.189,0.189c-2.326,2.328-6.102,2.328-8.428,0l-46.637-46.637
		c-7.475-7.473-13.19-16.723-16.532-26.749c-2.761-8.281-7.481-15.919-13.652-22.089L32.924,39.118
		c-2.696-2.694-6.237-4.042-9.777-4.042c-3.541,0-7.082,1.347-9.777,4.043l-9.327,9.326C-1.348,53.836-1.348,62.608,4.043,68
		l114.39,114.389c6.171,6.172,13.809,10.892,22.09,13.653c10.026,3.342,19.275,9.058,26.749,16.532l46.637,46.637
		c1.118,1.117,1.746,2.634,1.746,4.214c0,1.581-0.629,3.098-1.746,4.215c-1.366,1.366-2.118,3.181-2.118,5.112
		c0,1.931,0.752,3.746,2.118,5.112c1.367,1.367,3.182,2.119,5.113,2.119s3.746-0.752,5.112-2.118l18.845-18.844
		c2.818-2.819,2.818-7.407-0.001-10.227C241.613,247.43,239.797,246.677,237.866,246.677z"></path>
	<path d="M119.502,202.159l-46.638,46.637c-2.327,2.327-6.103,2.326-8.428-0.001c-1.41-1.409-3.261-2.114-5.113-2.114
		c-1.852,0-3.704,0.705-5.114,2.115c-2.818,2.819-2.818,7.406,0.001,10.227l18.843,18.842c2.819,2.82,7.404,2.82,10.227,0.001
		c1.365-1.366,2.118-3.182,2.118-5.113c0-1.931-0.753-3.747-2.118-5.113l-0.178-0.177c-1.122-1.118-1.755-2.635-1.757-4.218
		c-0.002-1.583,0.626-3.102,1.746-4.222l46.637-46.637c1.915-1.916,3.957-3.705,6.091-5.377c-5.017-1.756-9.823-4.104-14.304-6.971
		C120.859,200.757,120.192,201.469,119.502,202.159z"></path>
	<path d="M130.649,46.286c0-6.343-2.351-12.307-6.557-16.891c-3.388,4.776-5.388,10.602-5.388,16.891c0,6.288,2,12.114,5.388,16.89
		C128.299,58.593,130.649,52.63,130.649,46.286z"></path>
	<path d="M147.974,75.554c6.271,0,12.083-1.989,16.851-5.36c-6.061-6.44-9.461-14.896-9.461-23.908c0-9.012,3.4-17.468,9.461-23.909
		c-4.769-3.371-10.58-5.36-16.851-5.36c-6.271,0-12.083,1.989-16.852,5.361c6.061,6.44,9.461,14.896,9.461,23.909
		c0,9.011-3.4,17.467-9.461,23.908C135.89,73.565,141.703,75.554,147.974,75.554z"></path>
	<path d="M177.242,46.286c0-6.288-2-12.115-5.388-16.891c-4.206,4.583-6.556,10.548-6.556,16.891s2.351,12.307,6.557,16.89
		C175.242,58.401,177.242,52.574,177.242,46.286z"></path>
</g>
<desc>Created with Snap</desc><defs></defs></svg><g id="CITY_NAME" xmlns="http://www.w3.org/2000/svg"><g transform="matrix(0.309,-0.9511,0.9511,0.309,-180.4856,304.4299)"><text x="107.34606854879705" y="321.2157483494235" fill="#ffffff" id="CITY_NAME-V" stroke="undefined" style="font-size: 64px; font-family: Thunder;">V</text><rect x="0" y="0" width="1000" height="1000" fill="none" style=""></rect></g><g transform="matrix(0.5877,-0.8091,0.8091,0.5877,-60.8527,210.436)"><text x="164.14133628016464" y="209.7242580806155" fill="#ffffff" id="CITY_NAME-A" stroke="undefined" style="font-size: 64px; font-family: Thunder;">A</text><rect x="0" y="0" width="1000" height="1000" fill="none" style=""></rect></g><g transform="matrix(0.8089,-0.5879,0.5879,0.8089,5.4591,169.6664)"><text x="251.93236678034108" y="121.23500972942355" fill="#ffffff" id="CITY_NAME-N" stroke="undefined" style="font-size: 64px; font-family: Thunder;">N</text><rect x="0" y="0" width="1000" height="1000" fill="none" style=""></rect></g><g transform="matrix(0.951,-0.3092,0.3092,0.951,12.3317,117.0133)"><text x="363.69502219471855" y="65.75070657615464" fill="#ffffff" id="CITY_NAME-C" stroke="undefined" style="font-size: 64px; font-family: Thunder;">C</text><rect x="0" y="0" width="1000" height="1000" fill="none" style=""></rect></g><g transform="matrix(1,0,0,1,0,0)"><text x="487.392" y="46.08" fill="#ffffff" id="CITY_NAME-O" stroke="undefined" style="font-size: 64px; font-family: Thunder;">O</text><rect x="0" y="0" width="1000" height="1000" fill="none" style=""></rect></g><g transform="matrix(0.951,0.3092,-0.3092,0.951,36.5846,-191.5959)"><text x="611.2489778052815" y="65.04670657615469" fill="#ffffff" id="CITY_NAME-U" stroke="undefined" style="font-size: 64px; font-family: Thunder;">U</text><rect x="0" y="0" width="1000" height="1000" fill="none" style=""></rect></g><g transform="matrix(0.8089,0.5879,-0.5879,0.8089,185.3593,-417.4349)"><text x="722.947633219659" y="121.23500972942367" fill="#ffffff" id="CITY_NAME-V" stroke="undefined" style="font-size: 64px; font-family: Thunder;">V</text><rect x="0" y="0" width="1000" height="1000" fill="none" style=""></rect></g><g transform="matrix(0.5877,0.8091,-0.8091,0.5877,472.5828,-597.5115)"><text x="814.2906637198353" y="209.7882580806155" fill="#ffffff" id="CITY_NAME-E" stroke="undefined" style="font-size: 64px; font-family: Thunder;">E</text><rect x="0" y="0" width="1000" height="1000" fill="none" style=""></rect></g><g transform="matrix(0.309,0.9511,-0.9511,0.309,870.552,-645.3058)"><text x="867.629931451203" y="321.2797483494235" fill="#ffffff" id="CITY_NAME-R" stroke="undefined" style="font-size: 64px; font-family: Thunder;">R</text><rect x="0" y="0" width="1000" height="1000" fill="none" style=""></rect></g></g><g id="SPORT_NAME" xmlns="http://www.w3.org/2000/svg"><g transform="matrix(0.3419,0.9397,-0.9397,0.3419,648.2345,283.2041)"><text x="110.21226718439814" y="604.4077483494293" fill="#ffffff" id="SPORT_NAME-B" stroke="undefined" style="font-size: 64px; font-family: Thunder;">B</text><rect x="0" y="0" width="1000" height="1000" fill="none" style=""></rect></g><g transform="matrix(0.6425,0.7663,-0.7663,0.6425,624.228,111.2691)"><text x="180.95295434579566" y="724.6754229695933" fill="#ffffff" id="SPORT_NAME-A" stroke="undefined" style="font-size: 64px; font-family: Thunder;">A</text><rect x="0" y="0" width="1000" height="1000" fill="none" style=""></rect></g><g transform="matrix(0.8658,0.5004,-0.5004,0.8658,447.306,-39.7639)"><text x="286.1636679726837" y="813.9726406592574" fill="#ffffff" id="SPORT_NAME-S" stroke="undefined" style="font-size: 64px; font-family: Thunder;">S</text><rect x="0" y="0" width="1000" height="1000" fill="none" style=""></rect></g><g transform="matrix(0.9847,0.1743,-0.1743,0.9847,156.7208,-61.4309)"><text x="419.8474150234837" y="861.5389673927" fill="#ffffff" id="SPORT_NAME-E" stroke="undefined" style="font-size: 64px; font-family: Thunder;">E</text><rect x="0" y="0" width="1000" height="1000" fill="none" style=""></rect></g><g transform="matrix(0.9847,-0.1743,0.1743,0.9847,-141.4797,112.112)"><text x="555.8325849765162" y="861.5389673927" fill="#ffffff" id="SPORT_NAME-B" stroke="undefined" style="font-size: 64px; font-family: Thunder;">B</text><rect x="0" y="0" width="1000" height="1000" fill="none" style=""></rect></g><g transform="matrix(0.8658,-0.5004,0.5004,0.8658,-313.4433,459.3218)"><text x="687.6283320273161" y="813.9726406592574" fill="#ffffff" id="SPORT_NAME-A" stroke="undefined" style="font-size: 64px; font-family: Thunder;">A</text><rect x="0" y="0" width="1000" height="1000" fill="none" style=""></rect></g><g transform="matrix(0.6425,-0.7663,0.7663,0.6425,-267.8138,875.2708)"><text x="796.0390456542042" y="724.6754229695935" fill="#ffffff" id="SPORT_NAME-L" stroke="undefined" style="font-size: 64px; font-family: Thunder;">L</text><rect x="0" y="0" width="1000" height="1000" fill="none" style=""></rect></g><g transform="matrix(0.3419,-0.9397,0.9397,0.3419,6.9528,1218.7433)"><text x="865.4357328156018" y="604.4077483494295" fill="#ffffff" id="SPORT_NAME-L" stroke="undefined" style="font-size: 64px; font-family: Thunder;">L</text><rect x="0" y="0" width="1000" height="1000" fill="none" style=""></rect></g></g><g id="TEAM_NAME" xmlns="http://www.w3.org/2000/svg"><text x="170.42149999999234" y="552.9857483494293" fill="#ffffff" id="TEAM_NAME-V" stroke="undefined" style="font-size: 331.1px; font-family: Thunder;">V</text><text x="297.6174999999953" y="552.9857483494293" fill="#ffffff" id="TEAM_NAME-I" stroke="undefined" style="font-size: 331.1px; font-family: Thunder;">I</text><text x="351.9714999999964" y="552.9857483494293" fill="#ffffff" id="TEAM_NAME-P" stroke="undefined" style="font-size: 331.1px; font-family: Thunder;">P</text><text x="477.8430999999993" y="552.9857483494293" fill="#ffffff" id="TEAM_NAME-E" stroke="undefined" style="font-size: 331.1px; font-family: Thunder;">E</text><text x="571.2669000000014" y="552.9857483494293" fill="#ffffff" id="TEAM_NAME-R" stroke="undefined" style="font-size: 331.1px; font-family: Thunder;">R</text><text x="700.7806000000045" y="552.9857483494293" fill="#ffffff" id="TEAM_NAME-S" stroke="undefined" style="font-size: 331.1px; font-family: Thunder;">S</text></g></svg>