<svg width="100%" viewBox="0.01340000001601993 0 999.9731999999681 637"><defs/><svg id="INSERT_SVG_1" xmlns="http://www.w3.org/2000/svg" viewBox="0 0 512 512" xml:space="preserve" x="425" y="0" fill="#ffffff" width="150" height="150" style="">
<g>
	<path class="st0" d="M102.49,0c0,27.414,0,104.166,0,137.062c0,112.391,99.33,156.25,153.51,156.25
		c54.18,0,153.51-43.859,153.51-156.25c0-32.896,0-109.648,0-137.062H102.49z M256.289,50.551l-68.164,29.768v98.474l-0.049,19.53
		c-0.526-0.112-47.274-10.112-47.274-78.391c0-28.17,0-69.6,0-69.6h60.385L256.289,50.551z"></path>
	<polygon class="st0" points="315.473,400.717 291.681,367.482 279.791,318.506 256,322.004 232.209,318.506 220.314,367.482 
		205.347,388.394 196.527,400.476 196.699,400.476 196.527,400.717 	"></polygon>
	<polygon class="st0" points="366.93,432.24 366.93,432 145.07,432 145.07,511.598 145.07,511.76 145.07,511.76 145.07,512 
		366.93,512 366.93,432.402 366.93,432.24 	"></polygon>
	<path class="st0" d="M511.638,96.668c-0.033-1.268-0.068-2.336-0.068-3.174V45.1h-73.889v38.736h35.152v9.658
		c0,1.127,0.037,2.557,0.086,4.258c0.389,13.976,1.303,46.707-21.545,70.203c-5.121,5.266-11.221,9.787-18.219,13.613
		c-3.883,17.635-10.109,33.564-18.104,47.814c26.561-6.406,48.026-17.898,64.096-34.422
		C513.402,159.734,512.121,113.918,511.638,96.668z"></path>
	<path class="st0" d="M60.625,167.955c-22.848-23.496-21.934-56.227-21.541-70.203c0.047-1.701,0.082-3.131,0.082-4.258v-9.658
		h34.842h0.07l0,0h0.24V45.1H0.43v48.394c0,0.838-0.032,1.906-0.068,3.174c-0.482,17.25-1.76,63.066,32.494,98.293
		c16.068,16.524,37.531,28.014,64.092,34.422c-7.996-14.25-14.22-30.182-18.103-47.816C71.846,177.74,65.746,173.221,60.625,167.955
		z"></path>
</g>
<desc>Created with Snap</desc><defs></defs></svg><svg id="INSERT_SVG_2" viewBox="0 0 15 15" xmlns="http://www.w3.org/2000/svg" x="425.00000000000006" y="487.47599999999085" fill="#ffffff" width="150" height="150" style="">
  <path id="e086ca83-8703-4df5-a97c-5939eb32113a" d="M13.91,7.94a5.9086,5.9086,0,0,1-.13.94,8.8218,8.8218,0,0,0-2.17-1.49,8.89,8.89,0,0,0-1.4-.56,8.6142,8.6142,0,0,0-1.82-.35.221.221,0,0,0-.08-.01A7.32,7.32,0,0,1,7.5,4.59c-.01-.01-.01-.01,0-.02a7.7573,7.7573,0,0,1,1.52.15,7.0987,7.0987,0,0,1,1.56.5,6.8585,6.8585,0,0,1,1.4.78A7.4165,7.4165,0,0,1,13.91,7.94Zm-1.87-5a6.2232,6.2232,0,0,0-1.85-1.27,4.2725,4.2725,0,0,0-.98-.36,5.6412,5.6412,0,0,0-1.55-.23,1.2882,1.2882,0,0,0-.32,0A7.4263,7.4263,0,0,0,7.21,2.5c0,.2.01.39.02.58a2.28,2.28,0,0,1,.26-.01,2.6438,2.6438,0,0,1,.28.01,8.2865,8.2865,0,0,1,1.49.16,8.9879,8.9879,0,0,1,1.35.37,8.7922,8.7922,0,0,1,1.53.7,10.18,10.18,0,0,1,1.39.97A6.4588,6.4588,0,0,0,12.04,2.94ZM4.01,8.76a9.4084,9.4084,0,0,1-.62-1.37,9.1038,9.1038,0,0,1-.37-1.41,9.1748,9.1748,0,0,1-.16-1.67V4.28a8.455,8.455,0,0,1,.1-1.34A6.28,6.28,0,0,0,1.47,5.3a6.2222,6.2222,0,0,0-.4,2.2c0,.15.01.3.02.44a5.9086,5.9086,0,0,0,.13.94,5.7343,5.7343,0,0,0,.41,1.23c.22-.05.44-.11.65-.17a8.0188,8.0188,0,0,0,1.9-.88C4.12,8.96,4.06,8.86,4.01,8.76Zm2.6-2.28a9,9,0,0,1-.63-1.76,9.135,9.135,0,0,1-.24-1.48c-.02-.25-.03-.49-.03-.74a9.3777,9.3777,0,0,1,.08-1.19,4.2725,4.2725,0,0,0-.98.36,7.7038,7.7038,0,0,0-.42,1.94c-.02.22-.03.44-.03.67a7.2659,7.2659,0,0,0,.06.93,7.4258,7.4258,0,0,0,.37,1.63,6.4705,6.4705,0,0,0,.59,1.28A8.0174,8.0174,0,0,0,6.65,6.55.2522.2522,0,0,1,6.61,6.48ZM12.7,9.93s0-.01-.01,0a7.0128,7.0128,0,0,0-1.7-1.16c-.06.1-.11.19-.17.29a8.783,8.783,0,0,1-.88,1.22,8.9125,8.9125,0,0,1-1.06,1.07,10.4181,10.4181,0,0,1-1.38.98,8.9933,8.9933,0,0,1-2.64,1.02,6.2985,6.2985,0,0,0,5.28,0,5.9674,5.9674,0,0,0,2.42-1.89,4.8258,4.8258,0,0,0,.65-1.03A6.0315,6.0315,0,0,0,12.7,9.93Zm-5.17-2c-.01.01-.02.03-.03.04a9.26,9.26,0,0,1-1.25,1.4,9.5925,9.5925,0,0,1-1.19.91,9.2683,9.2683,0,0,1-2.62,1.18,6.0989,6.0989,0,0,0,.53.61,7.7353,7.7353,0,0,0,3.15-.72,7.3839,7.3839,0,0,0,1.38-.82A7.6429,7.6429,0,0,0,8.75,9.37a7.7441,7.7441,0,0,0,.82-1.15A7.3414,7.3414,0,0,0,7.53,7.93Z"></path>
<desc>Created with Snap</desc><defs></defs></svg><g id="CITY_NAME" xmlns="http://www.w3.org/2000/svg"><text x="-8.1177999999837" y="329.8944999999943" fill="#ffffff" id="CITY_NAME-M" stroke="undefined" style="font-size: 254.1px; font-family: Gravicon;">M</text><text x="196.5556000000095" y="329.8944999999943" fill="#ffffff" id="CITY_NAME-J" stroke="undefined" style="font-size: 254.1px; font-family: Gravicon;">J</text><text x="335.67120000000494" y="329.8944999999943" fill="#ffffff" id="CITY_NAME-E" stroke="undefined" style="font-size: 254.1px; font-family: Gravicon;">E</text><text x="474.7868000000004" y="329.8944999999943" fill="#ffffff" id="CITY_NAME-N" stroke="undefined" style="font-size: 254.1px; font-family: Gravicon;">N</text><text x="638.5500999999952" y="329.8944999999943" fill="#ffffff" id="CITY_NAME-V" stroke="undefined" style="font-size: 254.1px; font-family: Gravicon;">V</text><text x="802.0592999999897" y="329.8944999999943" fill="#ffffff" id="CITY_NAME-B" stroke="undefined" style="font-size: 254.1px; font-family: Gravicon;">B</text><text x="1935.6973999999525" y="329.8944999999943" fill="#ffffff" id="CITY_NAME- " stroke="undefined" style="font-size: 254.1px; font-family: Gravicon;"> </text><text x="1951.6973999999525" y="329.8944999999943" fill="#ffffff" id="CITY_NAME- " stroke="undefined" style="font-size: 254.1px; font-family: Gravicon;"> </text><text x="1967.6973999999525" y="329.8944999999943" fill="#ffffff" id="CITY_NAME- " stroke="undefined" style="font-size: 254.1px; font-family: Gravicon;"> </text><text x="1983.6973999999525" y="329.8944999999943" fill="#ffffff" id="CITY_NAME- " stroke="undefined" style="font-size: 254.1px; font-family: Gravicon;"> </text></g><g id="SPORT_NAME" xmlns="http://www.w3.org/2000/svg"><text x="-5.997149999986926" y="471.47599999999085" fill="#0984e3" id="SPORT_NAME-C" stroke="undefined" style="font-size: 194.7px; font-family: Gravicon;">C</text><text x="102.4680500000103" y="471.47599999999085" fill="#0984e3" id="SPORT_NAME-H" stroke="undefined" style="font-size: 194.7px; font-family: Gravicon;">H</text><text x="212.1014500000075" y="471.47599999999085" fill="#0984e3" id="SPORT_NAME-A" stroke="undefined" style="font-size: 194.7px; font-family: Gravicon;">A</text><text x="337.89495000000426" y="471.47599999999085" fill="#0984e3" id="SPORT_NAME-M" stroke="undefined" style="font-size: 194.7px; font-family: Gravicon;">M</text><text x="496.59275000000014" y="471.47599999999085" fill="#0984e3" id="SPORT_NAME-P" stroke="undefined" style="font-size: 194.7px; font-family: Gravicon;">P</text><text x="605.0579499999974" y="471.47599999999085" fill="#0984e3" id="SPORT_NAME-I" stroke="undefined" style="font-size: 194.7px; font-family: Gravicon;">I</text><text x="644.5993499999965" y="471.47599999999085" fill="#0984e3" id="SPORT_NAME-O" stroke="undefined" style="font-size: 194.7px; font-family: Gravicon;">O</text><text x="753.0645499999937" y="471.47599999999085" fill="#0984e3" id="SPORT_NAME-N" stroke="undefined" style="font-size: 194.7px; font-family: Gravicon;">N</text><text x="883.5308499999903" y="471.47599999999085" fill="#0984e3" id="SPORT_NAME-S" stroke="undefined" style="font-size: 194.7px; font-family: Gravicon;">S</text></g><rect x="0" y="124.4" width="409" height="25.6" fill="#ffffff" style=""/><rect x="591" y="124.4" width="409" height="25.6" fill="#ffffff" style=""/><rect x="0" y="487" width="409" height="25.6" fill="#0984e3" style=""/><rect x="591" y="487" width="409" height="25.6" fill="#0984e3" style=""/></svg>