<svg id="Layer_1" data-name="Layer 1" xmlns="http://www.w3.org/2000/svg" viewBox="0 0 284 271.8"><defs><style>.cls-1{fill:#fff;}.cls-2{fill:#f2f2f2;}</style></defs><title>backShort</title><path class="cls-1" d="M1337.19,233.53c-34.34,22-41,18.33-41,18.33l-22.37-25.55-0.76-.87-0.21-.24s-5.07,54.88-2.56,158.13H1120.2c1.83-57.7,3.17-134.13-1.66-155.37-0.11-.51-0.23-1-0.35-1.43h-0.06c-7,1.45-18,24.32-24.94,26s-40-19.33-40-19.33a562.29,562.29,0,0,0,22.66-61c3.82-12.62,9.21-21,14.4-26.53q0.52-.57,1.05-1.08c8-8,15.22-9.39,15.22-9.39s21-8,56-23.67c40.33,5.67,64.83,0,64.83,0l68.84,30.67a3.09,3.09,0,0,1,1.09.54l0.5,0.36C1302,146.41,1314.81,161.85,1337.19,233.53Z" transform="translate(-1053.19 -111.53)"/><path class="cls-2" d="M1273.06,225.44c-1.74-16.94-2.58-57.32,24.22-82.7l0.5,0.36c-25.45,26.57-24.3,67.15-24,83.21Z" transform="translate(-1053.19 -111.53)"/><path class="cls-2" d="M1118.54,228c1.45-49-12.71-65.29-27.24-83.37q-0.53.51-1.05,1.08c17.44,21.39,26.46,40.71,27.88,80.87Z" transform="translate(-1053.19 -111.53)"/><polygon class="cls-2" points="115.84 166.56 98.44 271.8 77.56 271.8 115.84 166.56"/><path class="cls-2" d="M1253.88,383.33h-13.13a612.66,612.66,0,0,1-12.64-105.24S1241.24,333.53,1253.88,383.33Z" transform="translate(-1053.19 -111.53)"/><path class="cls-2" d="M1117.52,213.22L1106.66,201s6.44,24.33,11.47,25.54Z" transform="translate(-1053.19 -111.53)"/><path class="cls-2" d="M1112.39,217.13l-4.74-2s5.48,10,10.94,10.31Z" transform="translate(-1053.19 -111.53)"/><path class="cls-2" d="M1285.05,205l-12,10.66v9.74c7.06-.68,10.39-9.74,10.39-9.74h-3.71C1282.55,210.44,1285.05,205,1285.05,205Z" transform="translate(-1053.19 -111.53)"/></svg>